<mxfile host="app.diagrams.net" agent="Mozilla/5.0 (Windows NT 10.0; Win64; x64) AppleWebKit/537.36 (KHTML, like Gecko) Chrome/136.0.0.0 Safari/537.36" version="27.0.2">
  <diagram name="Page-1" id="aoiXFDONh99GHAiKIX10">
    <mxGraphModel dx="1281" dy="562" grid="1" gridSize="10" guides="1" tooltips="1" connect="1" arrows="1" fold="1" page="1" pageScale="1" pageWidth="1169" pageHeight="1654" math="0" shadow="0">
      <root>
        <mxCell id="0" />
        <mxCell id="1" parent="0" />
        <mxCell id="6Jb9slZUGNJcUMsNMv3b-1" value="&lt;font style=&quot;font-size: 18px;&quot;&gt;Add a group object diagram&lt;/font&gt;" style="text;align=center;fontStyle=1;verticalAlign=middle;spacingLeft=3;spacingRight=3;strokeColor=none;rotatable=0;points=[[0,0.5],[1,0.5]];portConstraint=eastwest;html=1;" vertex="1" parent="1">
          <mxGeometry x="440" y="40" width="310" height="26" as="geometry" />
        </mxCell>
        <mxCell id="6Jb9slZUGNJcUMsNMv3b-2" value="&lt;font style=&quot;font-size: 18px;&quot;&gt;precondition&lt;/font&gt;" style="text;html=1;align=center;verticalAlign=middle;resizable=0;points=[];autosize=1;strokeColor=none;fillColor=none;" vertex="1" parent="1">
          <mxGeometry x="510" y="83" width="120" height="40" as="geometry" />
        </mxCell>
        <mxCell id="6Jb9slZUGNJcUMsNMv3b-12" value="1" style="endArrow=open;html=1;endSize=12;startArrow=diamondThin;startSize=14;startFill=1;edgeStyle=orthogonalEdgeStyle;align=left;verticalAlign=bottom;rounded=0;" edge="1" parent="1">
          <mxGeometry x="-0.7925" y="10" relative="1" as="geometry">
            <mxPoint x="380" y="192" as="sourcePoint" />
            <mxPoint x="508" y="193" as="targetPoint" />
            <mxPoint as="offset" />
          </mxGeometry>
        </mxCell>
        <mxCell id="6Jb9slZUGNJcUMsNMv3b-13" value="1" style="text;html=1;align=center;verticalAlign=middle;resizable=0;points=[];autosize=1;strokeColor=none;fillColor=none;" vertex="1" parent="1">
          <mxGeometry x="480" y="160" width="30" height="30" as="geometry" />
        </mxCell>
        <mxCell id="6Jb9slZUGNJcUMsNMv3b-14" value="Choose" style="text;html=1;align=center;verticalAlign=middle;resizable=0;points=[];autosize=1;strokeColor=none;fillColor=none;" vertex="1" parent="1">
          <mxGeometry x="410" y="158" width="60" height="30" as="geometry" />
        </mxCell>
        <mxCell id="6Jb9slZUGNJcUMsNMv3b-19" value="" style="endArrow=none;html=1;rounded=0;entryX=0.573;entryY=1.065;entryDx=0;entryDy=0;entryPerimeter=0;exitX=1;exitY=0.5;exitDx=0;exitDy=0;" edge="1" parent="1" source="6Jb9slZUGNJcUMsNMv3b-36" target="6Jb9slZUGNJcUMsNMv3b-32">
          <mxGeometry width="50" height="50" relative="1" as="geometry">
            <mxPoint x="520" y="405" as="sourcePoint" />
            <mxPoint x="588.6037735849056" y="257" as="targetPoint" />
            <Array as="points">
              <mxPoint x="590" y="405" />
            </Array>
          </mxGeometry>
        </mxCell>
        <mxCell id="6Jb9slZUGNJcUMsNMv3b-20" value="lives" style="text;html=1;align=center;verticalAlign=middle;resizable=0;points=[];autosize=1;strokeColor=none;fillColor=none;" vertex="1" parent="1">
          <mxGeometry x="545" y="308" width="50" height="30" as="geometry" />
        </mxCell>
        <mxCell id="6Jb9slZUGNJcUMsNMv3b-21" value="" style="endArrow=diamondThin;endFill=0;endSize=24;html=1;rounded=0;entryX=0.444;entryY=0.959;entryDx=0;entryDy=0;entryPerimeter=0;" edge="1" parent="1" target="6Jb9slZUGNJcUMsNMv3b-28">
          <mxGeometry width="160" relative="1" as="geometry">
            <mxPoint x="360" y="405" as="sourcePoint" />
            <mxPoint x="300" y="240" as="targetPoint" />
            <Array as="points">
              <mxPoint x="300" y="405" />
            </Array>
          </mxGeometry>
        </mxCell>
        <mxCell id="6Jb9slZUGNJcUMsNMv3b-22" value="submit" style="text;html=1;align=center;verticalAlign=middle;resizable=0;points=[];autosize=1;strokeColor=none;fillColor=none;" vertex="1" parent="1">
          <mxGeometry x="240" y="328" width="60" height="30" as="geometry" />
        </mxCell>
        <mxCell id="6Jb9slZUGNJcUMsNMv3b-23" value="1" style="text;html=1;align=center;verticalAlign=middle;resizable=0;points=[];autosize=1;strokeColor=none;fillColor=none;" vertex="1" parent="1">
          <mxGeometry x="300" y="270" width="30" height="30" as="geometry" />
        </mxCell>
        <mxCell id="6Jb9slZUGNJcUMsNMv3b-24" value="1" style="text;html=1;align=center;verticalAlign=middle;resizable=0;points=[];autosize=1;strokeColor=none;fillColor=none;" vertex="1" parent="1">
          <mxGeometry x="330" y="380" width="30" height="30" as="geometry" />
        </mxCell>
        <mxCell id="6Jb9slZUGNJcUMsNMv3b-25" value="1" style="text;html=1;align=center;verticalAlign=middle;resizable=0;points=[];autosize=1;strokeColor=none;fillColor=none;" vertex="1" parent="1">
          <mxGeometry x="555" y="258" width="30" height="30" as="geometry" />
        </mxCell>
        <mxCell id="6Jb9slZUGNJcUMsNMv3b-26" value="1..*" style="text;html=1;align=center;verticalAlign=middle;resizable=0;points=[];autosize=1;strokeColor=none;fillColor=none;" vertex="1" parent="1">
          <mxGeometry x="510" y="378" width="40" height="30" as="geometry" />
        </mxCell>
        <mxCell id="6Jb9slZUGNJcUMsNMv3b-27" value="&lt;font style=&quot;font-size: 14px;&quot;&gt;:groupForm&lt;/font&gt;" style="swimlane;fontStyle=0;childLayout=stackLayout;horizontal=1;startSize=26;fillColor=none;horizontalStack=0;resizeParent=1;resizeParentMax=0;resizeLast=0;collapsible=1;marginBottom=0;whiteSpace=wrap;html=1;" vertex="1" parent="1">
          <mxGeometry x="240" y="140" width="140" height="90" as="geometry" />
        </mxCell>
        <mxCell id="6Jb9slZUGNJcUMsNMv3b-28" value="&lt;font style=&quot;font-size: 14px;&quot;&gt;&lt;span style=&quot;text-wrap-mode: nowrap;&quot;&gt;group Name=&quot;&quot;&lt;/span&gt;&lt;br style=&quot;padding: 0px; margin: 0px; text-wrap-mode: nowrap;&quot;&gt;&lt;span style=&quot;text-wrap-mode: nowrap;&quot;&gt;groupId=unset&lt;/span&gt;&lt;/font&gt;" style="text;strokeColor=none;fillColor=none;align=left;verticalAlign=top;spacingLeft=4;spacingRight=4;overflow=hidden;rotatable=0;points=[[0,0.5],[1,0.5]];portConstraint=eastwest;whiteSpace=wrap;html=1;" vertex="1" parent="6Jb9slZUGNJcUMsNMv3b-27">
          <mxGeometry y="26" width="140" height="64" as="geometry" />
        </mxCell>
        <mxCell id="6Jb9slZUGNJcUMsNMv3b-31" value=":&lt;font style=&quot;font-size: 14px;&quot;&gt;location&lt;/font&gt;" style="swimlane;fontStyle=0;childLayout=stackLayout;horizontal=1;startSize=26;fillColor=none;horizontalStack=0;resizeParent=1;resizeParentMax=0;resizeLast=0;collapsible=1;marginBottom=0;whiteSpace=wrap;html=1;" vertex="1" parent="1">
          <mxGeometry x="510" y="125" width="140" height="100" as="geometry" />
        </mxCell>
        <mxCell id="6Jb9slZUGNJcUMsNMv3b-32" value="&lt;font style=&quot;font-size: 14px;&quot;&gt;&lt;span style=&quot;text-wrap-mode: nowrap;&quot;&gt;Area=&quot;&quot;&lt;/span&gt;&lt;br style=&quot;padding: 0px; margin: 0px; text-wrap-mode: nowrap;&quot;&gt;&lt;span style=&quot;text-wrap-mode: nowrap;&quot;&gt;Country name=&quot;&quot;&lt;/span&gt;&lt;br style=&quot;padding: 0px; margin: 0px; text-wrap-mode: nowrap;&quot;&gt;&lt;span style=&quot;text-wrap-mode: nowrap;&quot;&gt;City name=&quot;&quot;&lt;/span&gt;&lt;/font&gt;" style="text;strokeColor=none;fillColor=none;align=left;verticalAlign=top;spacingLeft=4;spacingRight=4;overflow=hidden;rotatable=0;points=[[0,0.5],[1,0.5]];portConstraint=eastwest;whiteSpace=wrap;html=1;" vertex="1" parent="6Jb9slZUGNJcUMsNMv3b-31">
          <mxGeometry y="26" width="140" height="74" as="geometry" />
        </mxCell>
        <mxCell id="6Jb9slZUGNJcUMsNMv3b-35" value="&lt;font style=&quot;font-size: 14px;&quot;&gt;A1:Admin&lt;/font&gt;" style="swimlane;fontStyle=0;childLayout=stackLayout;horizontal=1;startSize=26;fillColor=none;horizontalStack=0;resizeParent=1;resizeParentMax=0;resizeLast=0;collapsible=1;marginBottom=0;whiteSpace=wrap;html=1;" vertex="1" parent="1">
          <mxGeometry x="360" y="350" width="140" height="90" as="geometry" />
        </mxCell>
        <mxCell id="6Jb9slZUGNJcUMsNMv3b-36" value="&lt;span style=&quot;text-wrap-mode: nowrap;&quot;&gt;N&lt;font style=&quot;font-size: 14px;&quot;&gt;ame=&quot;Admin1&quot;&lt;/font&gt;&lt;/span&gt;&lt;font size=&quot;3&quot;&gt;&lt;br style=&quot;padding: 0px; margin: 0px; text-wrap-mode: nowrap;&quot;&gt;&lt;span style=&quot;text-wrap-mode: nowrap;&quot;&gt;Password=********&lt;/span&gt;&lt;br style=&quot;padding: 0px; margin: 0px; text-wrap-mode: nowrap;&quot;&gt;&lt;span style=&quot;text-wrap-mode: nowrap;&quot;&gt;isLoggedin= True&lt;/span&gt;&lt;/font&gt;" style="text;strokeColor=none;fillColor=none;align=left;verticalAlign=top;spacingLeft=4;spacingRight=4;overflow=hidden;rotatable=0;points=[[0,0.5],[1,0.5]];portConstraint=eastwest;whiteSpace=wrap;html=1;" vertex="1" parent="6Jb9slZUGNJcUMsNMv3b-35">
          <mxGeometry y="26" width="140" height="64" as="geometry" />
        </mxCell>
        <mxCell id="6Jb9slZUGNJcUMsNMv3b-39" value="" style="line;strokeWidth=1;fillColor=none;align=left;verticalAlign=middle;spacingTop=-1;spacingLeft=3;spacingRight=3;rotatable=0;labelPosition=right;points=[];portConstraint=eastwest;strokeColor=inherit;" vertex="1" parent="1">
          <mxGeometry x="30" y="570" width="1110" height="8" as="geometry" />
        </mxCell>
        <mxCell id="6Jb9slZUGNJcUMsNMv3b-41" value="1" style="text;html=1;align=center;verticalAlign=middle;resizable=0;points=[];autosize=1;strokeColor=none;fillColor=none;" vertex="1" parent="1">
          <mxGeometry x="565" y="775" width="30" height="30" as="geometry" />
        </mxCell>
        <mxCell id="6Jb9slZUGNJcUMsNMv3b-42" value="Choose" style="text;html=1;align=center;verticalAlign=middle;resizable=0;points=[];autosize=1;strokeColor=none;fillColor=none;" vertex="1" parent="1">
          <mxGeometry x="495" y="773" width="60" height="30" as="geometry" />
        </mxCell>
        <mxCell id="6Jb9slZUGNJcUMsNMv3b-43" value="" style="endArrow=none;html=1;rounded=0;exitX=1;exitY=0.5;exitDx=0;exitDy=0;entryX=0.533;entryY=1.035;entryDx=0;entryDy=0;entryPerimeter=0;" edge="1" parent="1" source="6Jb9slZUGNJcUMsNMv3b-56" target="6Jb9slZUGNJcUMsNMv3b-54">
          <mxGeometry width="50" height="50" relative="1" as="geometry">
            <mxPoint x="605" y="1020" as="sourcePoint" />
            <mxPoint x="690" y="900" as="targetPoint" />
            <Array as="points">
              <mxPoint x="675" y="1023" />
            </Array>
          </mxGeometry>
        </mxCell>
        <mxCell id="6Jb9slZUGNJcUMsNMv3b-44" value="lives" style="text;html=1;align=center;verticalAlign=middle;resizable=0;points=[];autosize=1;strokeColor=none;fillColor=none;" vertex="1" parent="1">
          <mxGeometry x="630" y="923" width="50" height="30" as="geometry" />
        </mxCell>
        <mxCell id="6Jb9slZUGNJcUMsNMv3b-45" value="" style="endArrow=diamondThin;endFill=0;endSize=24;html=1;rounded=0;entryX=0.563;entryY=0.937;entryDx=0;entryDy=0;entryPerimeter=0;" edge="1" parent="1" target="6Jb9slZUGNJcUMsNMv3b-52">
          <mxGeometry width="160" relative="1" as="geometry">
            <mxPoint x="445" y="1037.62" as="sourcePoint" />
            <mxPoint x="380.79" y="860" as="targetPoint" />
            <Array as="points">
              <mxPoint x="385" y="1037.62" />
            </Array>
          </mxGeometry>
        </mxCell>
        <mxCell id="6Jb9slZUGNJcUMsNMv3b-46" value="submit" style="text;html=1;align=center;verticalAlign=middle;resizable=0;points=[];autosize=1;strokeColor=none;fillColor=none;" vertex="1" parent="1">
          <mxGeometry x="325" y="943" width="60" height="30" as="geometry" />
        </mxCell>
        <mxCell id="6Jb9slZUGNJcUMsNMv3b-47" value="1" style="text;html=1;align=center;verticalAlign=middle;resizable=0;points=[];autosize=1;strokeColor=none;fillColor=none;" vertex="1" parent="1">
          <mxGeometry x="380" y="860" width="30" height="30" as="geometry" />
        </mxCell>
        <mxCell id="6Jb9slZUGNJcUMsNMv3b-48" value="1" style="text;html=1;align=center;verticalAlign=middle;resizable=0;points=[];autosize=1;strokeColor=none;fillColor=none;" vertex="1" parent="1">
          <mxGeometry x="415" y="995" width="30" height="30" as="geometry" />
        </mxCell>
        <mxCell id="6Jb9slZUGNJcUMsNMv3b-49" value="1" style="text;html=1;align=center;verticalAlign=middle;resizable=0;points=[];autosize=1;strokeColor=none;fillColor=none;" vertex="1" parent="1">
          <mxGeometry x="640" y="873" width="30" height="30" as="geometry" />
        </mxCell>
        <mxCell id="6Jb9slZUGNJcUMsNMv3b-50" value="1..*" style="text;html=1;align=center;verticalAlign=middle;resizable=0;points=[];autosize=1;strokeColor=none;fillColor=none;" vertex="1" parent="1">
          <mxGeometry x="595" y="993" width="40" height="30" as="geometry" />
        </mxCell>
        <mxCell id="6Jb9slZUGNJcUMsNMv3b-51" value="&lt;font style=&quot;font-size: 14px;&quot;&gt;g1:groupForm&lt;/font&gt;" style="swimlane;fontStyle=0;childLayout=stackLayout;horizontal=1;startSize=26;fillColor=none;horizontalStack=0;resizeParent=1;resizeParentMax=0;resizeLast=0;collapsible=1;marginBottom=0;whiteSpace=wrap;html=1;" vertex="1" parent="1">
          <mxGeometry x="270" y="755" width="195" height="90" as="geometry" />
        </mxCell>
        <mxCell id="6Jb9slZUGNJcUMsNMv3b-52" value="&lt;font style=&quot;font-size: 14px;&quot;&gt;&lt;span style=&quot;text-wrap-mode: nowrap;&quot;&gt;group Name=&quot;October group&quot;&lt;/span&gt;&lt;br style=&quot;padding: 0px; margin: 0px; text-wrap-mode: nowrap;&quot;&gt;&lt;span style=&quot;text-wrap-mode: nowrap;&quot;&gt;groupId= 1&lt;/span&gt;&lt;/font&gt;" style="text;strokeColor=none;fillColor=none;align=left;verticalAlign=top;spacingLeft=4;spacingRight=4;overflow=hidden;rotatable=0;points=[[0,0.5],[1,0.5]];portConstraint=eastwest;whiteSpace=wrap;html=1;" vertex="1" parent="6Jb9slZUGNJcUMsNMv3b-51">
          <mxGeometry y="26" width="195" height="64" as="geometry" />
        </mxCell>
        <mxCell id="6Jb9slZUGNJcUMsNMv3b-53" value=":&lt;font style=&quot;font-size: 14px;&quot;&gt;location&lt;/font&gt;" style="swimlane;fontStyle=0;childLayout=stackLayout;horizontal=1;startSize=26;fillColor=none;horizontalStack=0;resizeParent=1;resizeParentMax=0;resizeLast=0;collapsible=1;marginBottom=0;whiteSpace=wrap;html=1;" vertex="1" parent="1">
          <mxGeometry x="595" y="740" width="150" height="100" as="geometry" />
        </mxCell>
        <mxCell id="6Jb9slZUGNJcUMsNMv3b-54" value="&lt;font style=&quot;font-size: 14px;&quot;&gt;&lt;span style=&quot;text-wrap-mode: nowrap;&quot;&gt;Area=&quot;Helwan&quot;&lt;/span&gt;&lt;br style=&quot;padding: 0px; margin: 0px; text-wrap-mode: nowrap;&quot;&gt;&lt;span style=&quot;text-wrap-mode: nowrap;&quot;&gt;Country name=&quot;egypt&quot;&lt;/span&gt;&lt;br style=&quot;padding: 0px; margin: 0px; text-wrap-mode: nowrap;&quot;&gt;&lt;span style=&quot;text-wrap-mode: nowrap;&quot;&gt;City name=&quot;cairo&quot;&lt;/span&gt;&lt;/font&gt;" style="text;strokeColor=none;fillColor=none;align=left;verticalAlign=top;spacingLeft=4;spacingRight=4;overflow=hidden;rotatable=0;points=[[0,0.5],[1,0.5]];portConstraint=eastwest;whiteSpace=wrap;html=1;" vertex="1" parent="6Jb9slZUGNJcUMsNMv3b-53">
          <mxGeometry y="26" width="150" height="74" as="geometry" />
        </mxCell>
        <mxCell id="6Jb9slZUGNJcUMsNMv3b-55" value="&lt;font style=&quot;font-size: 14px;&quot;&gt;A1:Admin&lt;/font&gt;" style="swimlane;fontStyle=0;childLayout=stackLayout;horizontal=1;startSize=26;fillColor=none;horizontalStack=0;resizeParent=1;resizeParentMax=0;resizeLast=0;collapsible=1;marginBottom=0;whiteSpace=wrap;html=1;" vertex="1" parent="1">
          <mxGeometry x="445" y="965" width="140" height="90" as="geometry" />
        </mxCell>
        <mxCell id="6Jb9slZUGNJcUMsNMv3b-56" value="&lt;span style=&quot;text-wrap-mode: nowrap;&quot;&gt;&lt;font style=&quot;font-size: 14px;&quot;&gt;&lt;font style=&quot;&quot;&gt;name&lt;/font&gt;&lt;font style=&quot;&quot;&gt;=&quot;Admin1&quot;&lt;/font&gt;&lt;/font&gt;&lt;/span&gt;&lt;font size=&quot;3&quot;&gt;&lt;br style=&quot;padding: 0px; margin: 0px; text-wrap-mode: nowrap;&quot;&gt;&lt;span style=&quot;text-wrap-mode: nowrap;&quot;&gt;Password=********&lt;/span&gt;&lt;br style=&quot;padding: 0px; margin: 0px; text-wrap-mode: nowrap;&quot;&gt;&lt;span style=&quot;text-wrap-mode: nowrap;&quot;&gt;isLoggedin= True&lt;/span&gt;&lt;/font&gt;" style="text;strokeColor=none;fillColor=none;align=left;verticalAlign=top;spacingLeft=4;spacingRight=4;overflow=hidden;rotatable=0;points=[[0,0.5],[1,0.5]];portConstraint=eastwest;whiteSpace=wrap;html=1;" vertex="1" parent="6Jb9slZUGNJcUMsNMv3b-55">
          <mxGeometry y="26" width="140" height="64" as="geometry" />
        </mxCell>
        <mxCell id="6Jb9slZUGNJcUMsNMv3b-57" value="&lt;font style=&quot;font-size: 18px;&quot;&gt;Postcondition&lt;/font&gt;" style="text;html=1;align=center;verticalAlign=middle;resizable=0;points=[];autosize=1;strokeColor=none;fillColor=none;" vertex="1" parent="1">
          <mxGeometry x="455" y="603" width="130" height="40" as="geometry" />
        </mxCell>
        <mxCell id="6Jb9slZUGNJcUMsNMv3b-59" value="" style="endArrow=open;endFill=1;endSize=12;html=1;rounded=0;exitX=0.994;exitY=0.3;exitDx=0;exitDy=0;exitPerimeter=0;" edge="1" parent="1" source="6Jb9slZUGNJcUMsNMv3b-52">
          <mxGeometry width="160" relative="1" as="geometry">
            <mxPoint x="480" y="800" as="sourcePoint" />
            <mxPoint x="595" y="799.5" as="targetPoint" />
          </mxGeometry>
        </mxCell>
        <mxCell id="6Jb9slZUGNJcUMsNMv3b-60" value="1" style="text;html=1;align=center;verticalAlign=middle;resizable=0;points=[];autosize=1;strokeColor=none;fillColor=none;" vertex="1" parent="1">
          <mxGeometry x="465" y="778" width="30" height="30" as="geometry" />
        </mxCell>
      </root>
    </mxGraphModel>
  </diagram>
</mxfile>
